{
  "accessors": [
    {
      "bufferView": 2,
      "componentType": 5126,
      "count": 34,
      "max": [
        1.0,
        1.0,
        0.12682555615901947
      ],
      "min": [
        -1.0,
        -1.0,
        0.0
      ],
      "type": "VEC3"
    },
    {
      "bufferView": 2,
      "byteOffset": 408,
      "componentType": 5126,
      "count": 34,
      "max": [
        0.07215972244739532,
        0.07215972244739532,
        1.0
      ],
      "min": [
        -0.07372261583805084,
        -0.17529962956905365,
        0.981751024723053
      ],
      "type": "VEC3"
    },
    {
      "bufferView": 1,
      "componentType": 5126,
      "count": 34,
      "max": [
        1.0,
        1.0
      ],
      "min": [
        0.0,
        0.0
      ],
      "type": "VEC2"
    },
    {
      "bufferView": 0,
      "componentType": 5125,
      "count": 96,
      "type": "SCALAR"
    },
    {
      "bufferView": 2,
      "byteOffset": 816,
      "componentType": 5126,
      "count": 43,
      "max": [
        1.0,
        1.0,
        0.1422521024942398
      ],
      "min": [
        -1.0,
        -1.0,
        -0.042567819356918335
      ],
      "type": "VEC3"
    },
    {
      "bufferView": 2,
      "byteOffset": 1332,
      "componentType": 5126,
      "count": 43,
      "max": [
        0.10198652744293213,
        0.1394580751657486,
        1.0
      ],
      "min": [
        -0.1394580751657486,
        -0.20188401639461517,
        0.9794095158576965
      ],
      "type": "VEC3"
    },
    {
      "bufferView": 1,
      "byteOffset": 272,
      "componentType": 5126,
      "count": 43,
      "max": [
        1.0,
        1.0
      ],
      "min": [
        0.0,
        0.0
      ],
      "type": "VEC2"
    },
    {
      "bufferView": 0,
      "byteOffset": 384,
      "componentType": 5125,
      "count": 96,
      "type": "SCALAR"
    },
    {
      "bufferView": 2,
      "byteOffset": 1848,
      "componentType": 5126,
      "count": 49,
      "max": [
        1.0,
        1.0,
        0.13657911121845245
      ],
      "min": [
        -1.0,
        -1.0,
        0.0
      ],
      "type": "VEC3"
    },
    {
      "bufferView": 2,
      "byteOffset": 2436,
      "componentType": 5126,
      "count": 49,
      "max": [
        0.09864626079797745,
        0.09864626079797745,
        1.0
      ],
      "min": [
        -0.09864626079797745,
        -0.09864626079797745,
        0.9902211427688599
      ],
      "type": "VEC3"
    },
    {
      "bufferView": 1,
      "byteOffset": 616,
      "componentType": 5126,
      "count": 49,
      "max": [
        1.0,
        1.0
      ],
      "min": [
        0.0,
        0.0
      ],
      "type": "VEC2"
    },
    {
      "bufferView": 0,
      "byteOffset": 768,
      "componentType": 5125,
      "count": 96,
      "type": "SCALAR"
    },
    {
      "bufferView": 2,
      "byteOffset": 3024,
      "componentType": 5126,
      "count": 34,
      "max": [
        1.0,
        1.0,
        0.12866371870040894
      ],
      "min": [
        -1.0,
        -1.0,
        0.0
      ],
      "type": "VEC3"
    },
    {
      "bufferView": 2,
      "byteOffset": 3432,
      "componentType": 5126,
      "count": 34,
      "max": [
        0.10824761539697647,
        0.1161177009344101,
        1.0
      ],
      "min": [
        -0.11611770838499069,
        -0.16918979585170746,
        0.9796210527420044
      ],
      "type": "VEC3"
    },
    {
      "bufferView": 1,
      "byteOffset": 1008,
      "componentType": 5126,
      "count": 34,
      "max": [
        1.0,
        1.0
      ],
      "min": [
        0.0,
        0.0
      ],
      "type": "VEC2"
    },
    {
      "bufferView": 0,
      "byteOffset": 1152,
      "componentType": 5125,
      "count": 96,
      "type": "SCALAR"
    },
    {
      "bufferView": 2,
      "byteOffset": 3840,
      "componentType": 5126,
      "count": 49,
      "max": [
        1.0,
        1.0,
        0.121968574821949
      ],
      "min": [
        -1.0,
        -1.0,
        0.0
      ],
      "type": "VEC3"
    },
    {
      "bufferView": 2,
      "byteOffset": 4428,
      "componentType": 5126,
      "count": 49,
      "max": [
        0.12019365280866623,
        0.13575337827205658,
        1.0
      ],
      "min": [
        -0.0737840011715889,
        -0.12019365280866623,
        0.9854477047920227
      ],
      "type": "VEC3"
    },
    {
      "bufferView": 1,
      "byteOffset": 1280,
      "componentType": 5126,
      "count": 49,
      "max": [
        1.0,
        1.0
      ],
      "min": [
        0.0,
        0.0
      ],
      "type": "VEC2"
    },
    {
      "bufferView": 0,
      "byteOffset": 1536,
      "componentType": 5125,
      "count": 96,
      "type": "SCALAR"
    },
    {
      "bufferView": 2,
      "byteOffset": 5016,
      "componentType": 5126,
      "count": 58,
      "max": [
        1.0,
        1.0,
        0.12984497845172882
      ],
      "min": [
        -1.0,
        -1.0,
        0.0
      ],
      "type": "VEC3"
    },
    {
      "bufferView": 2,
      "byteOffset": 5712,
      "componentType": 5126,
      "count": 58,
      "max": [
        0.15624235570430756,
        0.12057732790708542,
        1.0
      ],
      "min": [
        -0.1545083224773407,
        -0.15624237060546875,
        0.9752829074859619
      ],
      "type": "VEC3"
    },
    {
      "bufferView": 1,
      "byteOffset": 1672,
      "componentType": 5126,
      "count": 58,
      "max": [
        1.0,
        1.0
      ],
      "min": [
        0.0,
        0.0
      ],
      "type": "VEC2"
    },
    {
      "bufferView": 0,
      "byteOffset": 1920,
      "componentType": 5125,
      "count": 96,
      "type": "SCALAR"
    },
    {
      "bufferView": 2,
      "byteOffset": 6408,
      "componentType": 5126,
      "count": 43,
      "max": [
        1.0,
        1.0,
        0.1422521024942398
      ],
      "min": [
        -1.0,
        -1.0,
        -0.042567819356918335
      ],
      "type": "VEC3"
    },
    {
      "bufferView": 2,
      "byteOffset": 6924,
      "componentType": 5126,
      "count": 43,
      "max": [
        0.10198652744293213,
        0.1394580751657486,
        1.0
      ],
      "min": [
        -0.1394580751657486,
        -0.20188401639461517,
        0.9794095158576965
      ],
      "type": "VEC3"
    },
    {
      "bufferView": 1,
      "byteOffset": 2136,
      "componentType": 5126,
      "count": 43,
      "max": [
        1.0,
        1.0
      ],
      "min": [
        0.0,
        0.0
      ],
      "type": "VEC2"
    },
    {
      "bufferView": 0,
      "byteOffset": 2304,
      "componentType": 5125,
      "count": 96,
      "type": "SCALAR"
    },
    {
      "bufferView": 2,
      "byteOffset": 7440,
      "componentType": 5126,
      "count": 64,
      "max": [
        -0.19314193725585938,
        2.432345390319824,
        0.12921597063541412
      ],
      "min": [
        -3.0052132606506348,
        0.09936988353729248,
        0.0005522346473298967
      ],
      "type": "VEC3"
    },
    {
      "bufferView": 2,
      "byteOffset": 8208,
      "componentType": 5126,
      "count": 64,
      "max": [
        0.14068971574306488,
        0.05065253749489784,
        1.0
      ],
      "min": [
        -0.13586285710334778,
        -0.10495496541261673,
        0.9844749569892883
      ],
      "type": "VEC3"
    },
    {
      "bufferView": 1,
      "byteOffset": 2480,
      "componentType": 5126,
      "count": 64,
      "max": [
        1.0,
        1.0
      ],
      "min": [
        0.0,
        0.0
      ],
      "type": "VEC2"
    },
    {
      "bufferView": 0,
      "byteOffset": 2688,
      "componentType": 5125,
      "count": 96,
      "type": "SCALAR"
    },
    {
      "bufferView": 2,
      "byteOffset": 8976,
      "componentType": 5126,
      "count": 62,
      "max": [
        1.3954229354858398,
        2.854990005493164,
        0.12445730715990067
      ],
      "min": [
        -2.1884689331054688,
        0.5560530424118042,
        -0.047027695924043655
      ],
      "type": "VEC3"
    },
    {
      "bufferView": 2,
      "byteOffset": 9720,
      "componentType": 5126,
      "count": 62,
      "max": [
        0.07097745686769485,
        0.14422814548015594,
        0.9995076060295105
      ],
      "min": [
        0.021461740136146545,
        -0.1816667914390564,
        0.9807953238487244
      ],
      "type": "VEC3"
    },
    {
      "bufferView": 1,
      "byteOffset": 2992,
      "componentType": 5126,
      "count": 62,
      "max": [
        1.0,
        1.0
      ],
      "min": [
        0.0,
        0.0
      ],
      "type": "VEC2"
    },
    {
      "bufferView": 0,
      "byteOffset": 3072,
      "componentType": 5125,
      "count": 96,
      "type": "SCALAR"
    },
    {
      "bufferView": 2,
      "byteOffset": 10464,
      "componentType": 5126,
      "count": 43,
      "max": [
        -1.4259753227233887,
        1.2098417282104492,
        0.142252117395401
      ],
      "min": [
        -4.785844326019287,
        -0.5244883894920349,
        -0.04256782308220863
      ],
      "type": "VEC3"
    },
    {
      "bufferView": 2,
      "byteOffset": 10980,
      "componentType": 5126,
      "count": 43,
      "max": [
        0.12057074904441833,
        0.17352640628814697,
        1.0
      ],
      "min": [
        -0.13291093707084656,
        -0.12707798182964325,
        0.9774207472801208
      ],
      "type": "VEC3"
    },
    {
      "bufferView": 1,
      "byteOffset": 3488,
      "componentType": 5126,
      "count": 43,
      "max": [
        1.0,
        1.0
      ],
      "min": [
        0.0,
        0.0
      ],
      "type": "VEC2"
    },
    {
      "bufferView": 0,
      "byteOffset": 3456,
      "componentType": 5125,
      "count": 96,
      "type": "SCALAR"
    },
    {
      "bufferView": 2,
      "byteOffset": 11496,
      "componentType": 5126,
      "count": 52,
      "max": [
        2.984330177307129,
        3.312645435333252,
        0.13713136315345764
      ],
      "min": [
        -0.20132005214691162,
        1.7832776308059692,
        0.0005522346473298967
      ],
      "type": "VEC3"
    },
    {
      "bufferView": 2,
      "byteOffset": 12120,
      "componentType": 5126,
      "count": 52,
      "max": [
        0.07524371892213821,
        0.15647786855697632,
        1.0
      ],
      "min": [
        -0.07524362951517105,
        -0.15647782385349274,
        0.9861350655555725
      ],
      "type": "VEC3"
    },
    {
      "bufferView": 1,
      "byteOffset": 3832,
      "componentType": 5126,
      "count": 52,
      "max": [
        1.0,
        1.0
      ],
      "min": [
        0.0,
        0.0
      ],
      "type": "VEC2"
    },
    {
      "bufferView": 0,
      "byteOffset": 3840,
      "componentType": 5125,
      "count": 96,
      "type": "SCALAR"
    }
  ],
  "asset": {
    "extras": {
      "author": "I am Cassia (https://sketchfab.com/iamCassia)",
      "license": "CC-BY-4.0 (http://creativecommons.org/licenses/by/4.0/)",
      "source": "https://sketchfab.com/3d-models/papers-1356e831277647098c204be4b0edf65c",
      "title": "Papers"
    },
    "generator": "Sketchfab-12.68.0",
    "version": "2.0"
  },
  "bufferViews": [
    {
      "buffer": 0,
      "byteLength": 4224,
      "name": "floatBufferViews",
      "target": 34963
    },
    {
      "buffer": 0,
      "byteLength": 4248,
      "byteOffset": 4224,
      "byteStride": 8,
      "name": "floatBufferViews",
      "target": 34962
    },
    {
      "buffer": 0,
      "byteLength": 12744,
      "byteOffset": 8472,
      "byteStride": 12,
      "name": "floatBufferViews",
      "target": 34962
    }
  ],
  "buffers": [
    {
      "byteLength": 21216,
      "uri": "scene.bin"
    }
  ],
  "images": [
    {
      "uri": "textures/material_baseColor.jpeg"
    },
    {
      "uri": "textures/material_1_baseColor.jpeg"
    },
    {
      "uri": "textures/material_2_baseColor.jpeg"
    },
    {
      "uri": "textures/material_3_baseColor.png"
    },
    {
      "uri": "textures/material_4_baseColor.jpeg"
    },
    {
      "uri": "textures/5.005_baseColor.jpeg"
    }
  ],
  "materials": [
    {
      "doubleSided": true,
      "name": "material",
      "pbrMetallicRoughness": {
        "baseColorTexture": {
          "index": 0
        },
        "metallicFactor": 0.0,
        "roughnessFactor": 0.8211145618000169
      }
    },
    {
      "doubleSided": true,
      "name": "material_1",
      "pbrMetallicRoughness": {
        "baseColorTexture": {
          "index": 1
        },
        "metallicFactor": 0.0,
        "roughnessFactor": 0.8211145618000169
      }
    },
    {
      "doubleSided": true,
      "name": "material_2",
      "pbrMetallicRoughness": {
        "baseColorTexture": {
          "index": 2
        },
        "metallicFactor": 0.0,
        "roughnessFactor": 0.8211145618000169
      }
    },
    {
      "doubleSided": true,
      "name": "material_3",
      "pbrMetallicRoughness": {
        "baseColorTexture": {
          "index": 3
        },
        "metallicFactor": 0.0,
        "roughnessFactor": 0.8211145618000169
      }
    },
    {
      "doubleSided": true,
      "name": "material_4",
      "pbrMetallicRoughness": {
        "baseColorTexture": {
          "index": 4
        },
        "metallicFactor": 0.0,
        "roughnessFactor": 0.8211145618000169
      }
    },
    {
      "doubleSided": true,
      "name": "5.005",
      "pbrMetallicRoughness": {
        "baseColorTexture": {
          "index": 5
        },
        "metallicFactor": 0.0,
        "roughnessFactor": 0.8211145618000169
      }
    },
    {
      "doubleSided": true,
      "name": "3.006",
      "pbrMetallicRoughness": {
        "baseColorTexture": {
          "index": 1
        },
        "metallicFactor": 0.0,
        "roughnessFactor": 0.8211145618000169
      }
    },
    {
      "doubleSided": true,
      "name": "1.005",
      "pbrMetallicRoughness": {
        "baseColorTexture": {
          "index": 3
        },
        "metallicFactor": 0.0,
        "roughnessFactor": 0.8211145618000169
      }
    },
    {
      "doubleSided": true,
      "name": "2.005",
      "pbrMetallicRoughness": {
        "baseColorTexture": {
          "index": 0
        },
        "metallicFactor": 0.0,
        "roughnessFactor": 0.8211145618000169
      }
    },
    {
      "doubleSided": true,
      "name": "3.007",
      "pbrMetallicRoughness": {
        "baseColorTexture": {
          "index": 1
        },
        "metallicFactor": 0.0,
        "roughnessFactor": 0.8211145618000169
      }
    },
    {
      "doubleSided": true,
      "name": "4.006",
      "pbrMetallicRoughness": {
        "baseColorTexture": {
          "index": 2
        },
        "metallicFactor": 0.0,
        "roughnessFactor": 0.8211145618000169
      }
    }
  ],
  "meshes": [
    {
      "name": "2_2_0",
      "primitives": [
        {
          "attributes": {
            "NORMAL": 1,
            "POSITION": 0,
            "TEXCOORD_0": 2
          },
          "indices": 3,
          "material": 0,
          "mode": 4
        }
      ]
    },
    {
      "name": "3_3_0",
      "primitives": [
        {
          "attributes": {
            "NORMAL": 5,
            "POSITION": 4,
            "TEXCOORD_0": 6
          },
          "indices": 7,
          "material": 1,
          "mode": 4
        }
      ]
    },
    {
      "name": "4_4_0",
      "primitives": [
        {
          "attributes": {
            "NORMAL": 9,
            "POSITION": 8,
            "TEXCOORD_0": 10
          },
          "indices": 11,
          "material": 2,
          "mode": 4
        }
      ]
    },
    {
      "name": "1_1_0",
      "primitives": [
        {
          "attributes": {
            "NORMAL": 13,
            "POSITION": 12,
            "TEXCOORD_0": 14
          },
          "indices": 15,
          "material": 3,
          "mode": 4
        }
      ]
    },
    {
      "name": "5_6_0",
      "primitives": [
        {
          "attributes": {
            "NORMAL": 17,
            "POSITION": 16,
            "TEXCOORD_0": 18
          },
          "indices": 19,
          "material": 4,
          "mode": 4
        }
      ]
    },
    {
      "name": "6_5.005_0",
      "primitives": [
        {
          "attributes": {
            "NORMAL": 21,
            "POSITION": 20,
            "TEXCOORD_0": 22
          },
          "indices": 23,
          "material": 5,
          "mode": 4
        }
      ]
    },
    {
      "name": "Mix_3.006_0",
      "primitives": [
        {
          "attributes": {
            "NORMAL": 25,
            "POSITION": 24,
            "TEXCOORD_0": 26
          },
          "indices": 27,
          "material": 6,
          "mode": 4
        }
      ]
    },
    {
      "name": "Mix_1.005_0",
      "primitives": [
        {
          "attributes": {
            "NORMAL": 29,
            "POSITION": 28,
            "TEXCOORD_0": 30
          },
          "indices": 31,
          "material": 7,
          "mode": 4
        }
      ]
    },
    {
      "name": "Mix_2.005_0",
      "primitives": [
        {
          "attributes": {
            "NORMAL": 33,
            "POSITION": 32,
            "TEXCOORD_0": 34
          },
          "indices": 35,
          "material": 8,
          "mode": 4
        }
      ]
    },
    {
      "name": "Mix_3.007_0",
      "primitives": [
        {
          "attributes": {
            "NORMAL": 37,
            "POSITION": 36,
            "TEXCOORD_0": 38
          },
          "indices": 39,
          "material": 9,
          "mode": 4
        }
      ]
    },
    {
      "name": "Mix_4.006_0",
      "primitives": [
        {
          "attributes": {
            "NORMAL": 41,
            "POSITION": 40,
            "TEXCOORD_0": 42
          },
          "indices": 43,
          "material": 10,
          "mode": 4
        }
      ]
    }
  ],
  "nodes": [
    {
      "children": [
        1
      ],
      "matrix": [
        1.0,
        0.0,
        0.0,
        0.0,
        0.0,
        2.220446049250313e-16,
        -1.0,
        0.0,
        0.0,
        1.0,
        2.220446049250313e-16,
        0.0,
        0.0,
        0.0,
        0.0,
        1.0
      ],
      "name": "Sketchfab_model"
    },
    {
      "children": [
        2
      ],
      "matrix": [
        1.0,
        0.0,
        0.0,
        0.0,
        0.0,
        0.0,
        1.0,
        0.0,
        0.0,
        -1.0,
        0.0,
        0.0,
        0.0,
        0.0,
        0.0,
        1.0
      ],
      "name": "paper.fbx"
    },
    {
      "children": [
        3,
        5,
        7,
        9,
        11,
        13,
        15
      ],
      "name": "RootNode"
    },
    {
      "children": [
        4
      ],
      "matrix": [
        5.86159926981757e-06,
        0.0,
        -77.6392364501951,
        0.0,
        -116.40927886962827,
        8.788656035533309e-06,
        -8.788656041995322e-06,
        0.0,
        1.0173719821585685e-05,
        134.75500488281213,
        7.480405455218692e-13,
        0.0,
        0.0,
        0.0,
        0.0,
        1.0
      ],
      "name": "2"
    },
    {
      "mesh": 0,
      "name": "2_2_0"
    },
    {
      "children": [
        6
      ],
      "matrix": [
        5.86159926981757e-06,
        0.0,
        -77.6392364501951,
        0.0,
        -116.40927886962827,
        8.788656035533309e-06,
        -8.788656041995322e-06,
        0.0,
        1.0173719821585685e-05,
        134.75500488281213,
        7.480405455218692e-13,
        0.0,
        0.0,
        0.0,
        -191.6907501220703,
        1.0
      ],
      "name": "3"
    },
    {
      "mesh": 1,
      "name": "3_3_0"
    },
    {
      "children": [
        8
      ],
      "matrix": [
        5.86159926981757e-06,
        0.0,
        -77.6392364501951,
        0.0,
        -116.40927886962827,
        8.788656035533309e-06,
        -8.788656041995322e-06,
        0.0,
        1.0173719821585685e-05,
        134.75500488281213,
        7.480405455218692e-13,
        0.0,
        0.0,
        0.0,
        -388.3299255371094,
        1.0
      ],
      "name": "4"
    },
    {
      "mesh": 2,
      "name": "4_4_0"
    },
    {
      "children": [
        10
      ],
      "matrix": [
        5.86159926981757e-06,
        0.0,
        -77.6392364501951,
        0.0,
        -116.40927886962827,
        8.788656035533309e-06,
        -8.788656041995322e-06,
        0.0,
        1.0173719821585685e-05,
        134.75500488281213,
        7.480405455218692e-13,
        0.0,
        0.0,
        0.0,
        193.82456970214844,
        1.0
      ],
      "name": "1"
    },
    {
      "mesh": 3,
      "name": "1_1_0"
    },
    {
      "children": [
        12
      ],
      "matrix": [
        5.86159926981757e-06,
        0.0,
        -77.6392364501951,
        0.0,
        -116.40927886962827,
        8.788656035533309e-06,
        -8.788656041995322e-06,
        0.0,
        1.0173719821585685e-05,
        134.75500488281213,
        7.480405455218692e-13,
        0.0,
        0.0,
        0.0,
        -580.2042236328125,
        1.0
      ],
      "name": "5"
    },
    {
      "mesh": 4,
      "name": "5_6_0"
    },
    {
      "children": [
        14
      ],
      "matrix": [
        5.86159926981757e-06,
        0.0,
        -77.6392364501951,
        0.0,
        -116.40927886962827,
        8.788656035533309e-06,
        -8.788656041995322e-06,
        0.0,
        1.0173719821585685e-05,
        134.75500488281213,
        7.480405455218692e-13,
        0.0,
        0.0,
        0.0,
        -758.3206787109375,
        1.0
      ],
      "name": "6"
    },
    {
      "mesh": 5,
      "name": "6_5.005_0"
    },
    {
      "children": [
        16,
        17,
        18,
        19,
        20
      ],
      "matrix": [
        59.27618938080861,
        -4.309843396066177e-15,
        -50.14164346189552,
        0.0,
        -75.18044278979036,
        -5.088411036294434e-06,
        -88.87642799197937,
        0.0,
        -3.804142959397297e-06,
        134.7550048828124,
        -4.4971621007122286e-06,
        0.0,
        586.07470703125,
        -0.0744163766503334,
        -207.2254638671875,
        1.0
      ],
      "name": "Mix"
    },
    {
      "mesh": 6,
      "name": "Mix_3.006_0"
    },
    {
      "mesh": 7,
      "name": "Mix_1.005_0"
    },
    {
      "mesh": 8,
      "name": "Mix_2.005_0"
    },
    {
      "mesh": 9,
      "name": "Mix_3.007_0"
    },
    {
      "mesh": 10,
      "name": "Mix_4.006_0"
    }
  ],
  "samplers": [
    {
      "magFilter": 9729,
      "minFilter": 9987,
      "wrapS": 10497,
      "wrapT": 10497
    }
  ],
  "scene": 0,
  "scenes": [
    {
      "name": "Sketchfab_Scene",
      "nodes": [
        0
      ]
    }
  ],
  "textures": [
    {
      "sampler": 0,
      "source": 0
    },
    {
      "sampler": 0,
      "source": 1
    },
    {
      "sampler": 0,
      "source": 2
    },
    {
      "sampler": 0,
      "source": 3
    },
    {
      "sampler": 0,
      "source": 4
    },
    {
      "sampler": 0,
      "source": 5
    }
  ]
}
